<mxfile host="Electron" agent="Mozilla/5.0 (Windows NT 10.0; Win64; x64) AppleWebKit/537.36 (KHTML, like Gecko) draw.io/24.7.8 Chrome/128.0.6613.36 Electron/32.0.1 Safari/537.36" version="24.7.8">
  <diagram id="C5RBs43oDa-KdzZeNtuy" name="Page-1">
    <mxGraphModel dx="1435" dy="1026" grid="1" gridSize="10" guides="1" tooltips="1" connect="1" arrows="1" fold="1" page="0" pageScale="1" pageWidth="827" pageHeight="1169" background="#d9d9d9" math="0" shadow="0">
      <root>
        <mxCell id="WIyWlLk6GJQsqaUBKTNV-0" />
        <mxCell id="WIyWlLk6GJQsqaUBKTNV-1" parent="WIyWlLk6GJQsqaUBKTNV-0" />
        <mxCell id="qCD3Xn8CvtnOKgH4Qj7L-4" value="" style="rounded=0;whiteSpace=wrap;html=1;movable=0;resizable=0;rotatable=0;deletable=0;editable=0;locked=1;connectable=0;" parent="WIyWlLk6GJQsqaUBKTNV-1" vertex="1">
          <mxGeometry x="-80" y="-280" width="880" height="630" as="geometry" />
        </mxCell>
        <mxCell id="WdvXpVfefzO77P3MapNB-0" value="" style="rounded=0;whiteSpace=wrap;html=1;" parent="WIyWlLk6GJQsqaUBKTNV-1" vertex="1">
          <mxGeometry x="40" y="-40" width="160" height="80" as="geometry" />
        </mxCell>
        <mxCell id="WdvXpVfefzO77P3MapNB-1" value="" style="rounded=0;whiteSpace=wrap;html=1;" parent="WIyWlLk6GJQsqaUBKTNV-1" vertex="1">
          <mxGeometry x="280" y="-40" width="160" height="80" as="geometry" />
        </mxCell>
        <mxCell id="WdvXpVfefzO77P3MapNB-2" value="" style="rounded=0;whiteSpace=wrap;html=1;" parent="WIyWlLk6GJQsqaUBKTNV-1" vertex="1">
          <mxGeometry x="520" y="-40" width="160" height="80" as="geometry" />
        </mxCell>
        <mxCell id="qCD3Xn8CvtnOKgH4Qj7L-0" style="edgeStyle=orthogonalEdgeStyle;rounded=0;orthogonalLoop=1;jettySize=auto;html=1;entryX=0.5;entryY=1;entryDx=0;entryDy=0;" parent="WIyWlLk6GJQsqaUBKTNV-1" source="WdvXpVfefzO77P3MapNB-3" target="WdvXpVfefzO77P3MapNB-19" edge="1">
          <mxGeometry relative="1" as="geometry" />
        </mxCell>
        <mxCell id="WdvXpVfefzO77P3MapNB-3" value="" style="rounded=0;whiteSpace=wrap;html=1;" parent="WIyWlLk6GJQsqaUBKTNV-1" vertex="1">
          <mxGeometry x="280" y="160" width="160" height="80" as="geometry" />
        </mxCell>
        <mxCell id="qCD3Xn8CvtnOKgH4Qj7L-3" style="edgeStyle=orthogonalEdgeStyle;rounded=0;orthogonalLoop=1;jettySize=auto;html=1;entryX=0.5;entryY=1;entryDx=0;entryDy=0;exitX=1;exitY=0.21;exitDx=0;exitDy=0;exitPerimeter=0;" parent="WIyWlLk6GJQsqaUBKTNV-1" source="WdvXpVfefzO77P3MapNB-6" target="WdvXpVfefzO77P3MapNB-25" edge="1">
          <mxGeometry relative="1" as="geometry">
            <mxPoint x="430" y="280" as="sourcePoint" />
          </mxGeometry>
        </mxCell>
        <mxCell id="WdvXpVfefzO77P3MapNB-6" value="Iphone" style="text;strokeColor=none;align=center;fillColor=none;html=1;verticalAlign=middle;whiteSpace=wrap;rounded=0;" parent="WIyWlLk6GJQsqaUBKTNV-1" vertex="1">
          <mxGeometry x="280" y="190" width="160" height="50" as="geometry" />
        </mxCell>
        <mxCell id="WdvXpVfefzO77P3MapNB-9" value="" style="rounded=0;whiteSpace=wrap;html=1;" parent="WIyWlLk6GJQsqaUBKTNV-1" vertex="1">
          <mxGeometry x="40" y="40" width="160" height="10" as="geometry" />
        </mxCell>
        <mxCell id="WdvXpVfefzO77P3MapNB-10" value="" style="rounded=0;whiteSpace=wrap;html=1;" parent="WIyWlLk6GJQsqaUBKTNV-1" vertex="1">
          <mxGeometry x="40" y="50" width="160" height="70" as="geometry" />
        </mxCell>
        <mxCell id="WdvXpVfefzO77P3MapNB-11" value="&amp;lt;&amp;lt;Interface&amp;gt;&amp;gt;" style="text;strokeColor=none;align=center;fillColor=none;html=1;verticalAlign=middle;whiteSpace=wrap;rounded=0;" parent="WIyWlLk6GJQsqaUBKTNV-1" vertex="1">
          <mxGeometry x="40" y="-40" width="160" height="30" as="geometry" />
        </mxCell>
        <mxCell id="WdvXpVfefzO77P3MapNB-12" value="ReprodutorMusical" style="text;strokeColor=none;align=center;fillColor=none;html=1;verticalAlign=middle;whiteSpace=wrap;rounded=0;" parent="WIyWlLk6GJQsqaUBKTNV-1" vertex="1">
          <mxGeometry x="40" y="-10" width="160" height="50" as="geometry" />
        </mxCell>
        <mxCell id="WdvXpVfefzO77P3MapNB-13" value="&amp;lt;&amp;lt;Interface&amp;gt;&amp;gt;" style="text;strokeColor=none;align=center;fillColor=none;html=1;verticalAlign=middle;whiteSpace=wrap;rounded=0;" parent="WIyWlLk6GJQsqaUBKTNV-1" vertex="1">
          <mxGeometry x="280" y="-40" width="160" height="30" as="geometry" />
        </mxCell>
        <mxCell id="WdvXpVfefzO77P3MapNB-14" value="&amp;lt;&amp;lt;Interface&amp;gt;&amp;gt;" style="text;strokeColor=none;align=center;fillColor=none;html=1;verticalAlign=middle;whiteSpace=wrap;rounded=0;" parent="WIyWlLk6GJQsqaUBKTNV-1" vertex="1">
          <mxGeometry x="520" y="-40" width="160" height="30" as="geometry" />
        </mxCell>
        <mxCell id="WdvXpVfefzO77P3MapNB-16" value="AparelhoTelefonico" style="text;strokeColor=none;align=center;fillColor=none;html=1;verticalAlign=middle;whiteSpace=wrap;rounded=0;" parent="WIyWlLk6GJQsqaUBKTNV-1" vertex="1">
          <mxGeometry x="280" y="-10" width="160" height="50" as="geometry" />
        </mxCell>
        <mxCell id="WdvXpVfefzO77P3MapNB-17" value="NavegadorInternet" style="text;strokeColor=none;align=center;fillColor=none;html=1;verticalAlign=middle;whiteSpace=wrap;rounded=0;" parent="WIyWlLk6GJQsqaUBKTNV-1" vertex="1">
          <mxGeometry x="520" y="-10" width="160" height="50" as="geometry" />
        </mxCell>
        <mxCell id="WdvXpVfefzO77P3MapNB-19" value="+tocar (): void&lt;div&gt;+pausar (): void&lt;/div&gt;&lt;div&gt;+selecionarMusica (String musica): void&lt;/div&gt;" style="text;strokeColor=none;align=center;fillColor=none;html=1;verticalAlign=middle;whiteSpace=wrap;rounded=0;" parent="WIyWlLk6GJQsqaUBKTNV-1" vertex="1">
          <mxGeometry x="40" y="50" width="160" height="70" as="geometry" />
        </mxCell>
        <mxCell id="WdvXpVfefzO77P3MapNB-20" value="" style="rounded=0;whiteSpace=wrap;html=1;" parent="WIyWlLk6GJQsqaUBKTNV-1" vertex="1">
          <mxGeometry x="280" y="40" width="160" height="10" as="geometry" />
        </mxCell>
        <mxCell id="WdvXpVfefzO77P3MapNB-21" value="" style="rounded=0;whiteSpace=wrap;html=1;" parent="WIyWlLk6GJQsqaUBKTNV-1" vertex="1">
          <mxGeometry x="520" y="40" width="160" height="10" as="geometry" />
        </mxCell>
        <mxCell id="WdvXpVfefzO77P3MapNB-22" value="" style="rounded=0;whiteSpace=wrap;html=1;" parent="WIyWlLk6GJQsqaUBKTNV-1" vertex="1">
          <mxGeometry x="280" y="50" width="160" height="70" as="geometry" />
        </mxCell>
        <mxCell id="WdvXpVfefzO77P3MapNB-23" value="" style="rounded=0;whiteSpace=wrap;html=1;" parent="WIyWlLk6GJQsqaUBKTNV-1" vertex="1">
          <mxGeometry x="520" y="50" width="160" height="70" as="geometry" />
        </mxCell>
        <mxCell id="WdvXpVfefzO77P3MapNB-24" value="+ligar (String numero): void&lt;div&gt;+atender (): void&lt;/div&gt;&lt;div&gt;+ iniciarCorreioVoz ():void&lt;/div&gt;" style="text;strokeColor=none;align=center;fillColor=none;html=1;verticalAlign=middle;whiteSpace=wrap;rounded=0;" parent="WIyWlLk6GJQsqaUBKTNV-1" vertex="1">
          <mxGeometry x="280" y="50" width="160" height="70" as="geometry" />
        </mxCell>
        <mxCell id="WdvXpVfefzO77P3MapNB-25" value="+exibirPagina (String url): void&lt;div&gt;+adicionarNovaAba (): void&lt;/div&gt;&lt;div&gt;+atualizarPagina ():void&lt;/div&gt;" style="text;strokeColor=none;align=center;fillColor=none;html=1;verticalAlign=middle;whiteSpace=wrap;rounded=0;" parent="WIyWlLk6GJQsqaUBKTNV-1" vertex="1">
          <mxGeometry x="520" y="50" width="160" height="70" as="geometry" />
        </mxCell>
        <mxCell id="qCD3Xn8CvtnOKgH4Qj7L-5" value="Diagramas UML desafio Iphone" style="text;strokeColor=none;align=center;fillColor=none;html=1;verticalAlign=middle;whiteSpace=wrap;rounded=0;fontSize=20;fontStyle=1" parent="WIyWlLk6GJQsqaUBKTNV-1" vertex="1">
          <mxGeometry x="-80" y="-260" width="880" height="30" as="geometry" />
        </mxCell>
        <mxCell id="qCD3Xn8CvtnOKgH4Qj7L-6" value="" style="rounded=0;whiteSpace=wrap;html=1;" parent="WIyWlLk6GJQsqaUBKTNV-1" vertex="1">
          <mxGeometry x="280" y="240" width="160" height="10" as="geometry" />
        </mxCell>
        <mxCell id="qCD3Xn8CvtnOKgH4Qj7L-7" value="" style="rounded=0;whiteSpace=wrap;html=1;" parent="WIyWlLk6GJQsqaUBKTNV-1" vertex="1">
          <mxGeometry x="280" y="250" width="160" height="20" as="geometry" />
        </mxCell>
        <mxCell id="VH8WiXOXaQqTg9zJLlB7-0" style="edgeStyle=orthogonalEdgeStyle;rounded=0;orthogonalLoop=1;jettySize=auto;html=1;entryX=0.5;entryY=1;entryDx=0;entryDy=0;" edge="1" parent="WIyWlLk6GJQsqaUBKTNV-1" source="qCD3Xn8CvtnOKgH4Qj7L-12" target="WdvXpVfefzO77P3MapNB-24">
          <mxGeometry relative="1" as="geometry" />
        </mxCell>
        <mxCell id="qCD3Xn8CvtnOKgH4Qj7L-12" value="&amp;lt;&amp;lt;Interface&amp;gt;&amp;gt;" style="text;strokeColor=none;align=center;fillColor=none;html=1;verticalAlign=middle;whiteSpace=wrap;rounded=0;" parent="WIyWlLk6GJQsqaUBKTNV-1" vertex="1">
          <mxGeometry x="280" y="160" width="160" height="30" as="geometry" />
        </mxCell>
        <mxCell id="qCD3Xn8CvtnOKgH4Qj7L-13" value="iPod" style="rounded=0;whiteSpace=wrap;html=1;" parent="WIyWlLk6GJQsqaUBKTNV-1" vertex="1">
          <mxGeometry x="40" y="-200" width="160" height="80" as="geometry" />
        </mxCell>
        <mxCell id="qCD3Xn8CvtnOKgH4Qj7L-14" value="" style="rounded=0;whiteSpace=wrap;html=1;" parent="WIyWlLk6GJQsqaUBKTNV-1" vertex="1">
          <mxGeometry x="40" y="-120" width="160" height="10" as="geometry" />
        </mxCell>
        <mxCell id="qCD3Xn8CvtnOKgH4Qj7L-22" style="edgeStyle=orthogonalEdgeStyle;rounded=0;orthogonalLoop=1;jettySize=auto;html=1;entryX=0.5;entryY=0;entryDx=0;entryDy=0;" parent="WIyWlLk6GJQsqaUBKTNV-1" source="qCD3Xn8CvtnOKgH4Qj7L-15" target="WdvXpVfefzO77P3MapNB-11" edge="1">
          <mxGeometry relative="1" as="geometry" />
        </mxCell>
        <mxCell id="qCD3Xn8CvtnOKgH4Qj7L-15" value="" style="rounded=0;whiteSpace=wrap;html=1;" parent="WIyWlLk6GJQsqaUBKTNV-1" vertex="1">
          <mxGeometry x="40" y="-110" width="160" height="30" as="geometry" />
        </mxCell>
        <mxCell id="qCD3Xn8CvtnOKgH4Qj7L-16" value="Telefone" style="rounded=0;whiteSpace=wrap;html=1;" parent="WIyWlLk6GJQsqaUBKTNV-1" vertex="1">
          <mxGeometry x="280" y="-200" width="160" height="80" as="geometry" />
        </mxCell>
        <mxCell id="qCD3Xn8CvtnOKgH4Qj7L-17" value="" style="rounded=0;whiteSpace=wrap;html=1;" parent="WIyWlLk6GJQsqaUBKTNV-1" vertex="1">
          <mxGeometry x="280" y="-120" width="160" height="10" as="geometry" />
        </mxCell>
        <mxCell id="qCD3Xn8CvtnOKgH4Qj7L-23" style="edgeStyle=orthogonalEdgeStyle;rounded=0;orthogonalLoop=1;jettySize=auto;html=1;" parent="WIyWlLk6GJQsqaUBKTNV-1" source="qCD3Xn8CvtnOKgH4Qj7L-18" target="WdvXpVfefzO77P3MapNB-13" edge="1">
          <mxGeometry relative="1" as="geometry" />
        </mxCell>
        <mxCell id="qCD3Xn8CvtnOKgH4Qj7L-18" value="" style="rounded=0;whiteSpace=wrap;html=1;" parent="WIyWlLk6GJQsqaUBKTNV-1" vertex="1">
          <mxGeometry x="280" y="-110" width="160" height="30" as="geometry" />
        </mxCell>
        <mxCell id="qCD3Xn8CvtnOKgH4Qj7L-19" value="Safari" style="rounded=0;whiteSpace=wrap;html=1;" parent="WIyWlLk6GJQsqaUBKTNV-1" vertex="1">
          <mxGeometry x="520" y="-200" width="160" height="80" as="geometry" />
        </mxCell>
        <mxCell id="qCD3Xn8CvtnOKgH4Qj7L-20" value="" style="rounded=0;whiteSpace=wrap;html=1;" parent="WIyWlLk6GJQsqaUBKTNV-1" vertex="1">
          <mxGeometry x="520" y="-120" width="160" height="10" as="geometry" />
        </mxCell>
        <mxCell id="qCD3Xn8CvtnOKgH4Qj7L-24" style="edgeStyle=orthogonalEdgeStyle;rounded=0;orthogonalLoop=1;jettySize=auto;html=1;" parent="WIyWlLk6GJQsqaUBKTNV-1" source="qCD3Xn8CvtnOKgH4Qj7L-21" target="WdvXpVfefzO77P3MapNB-14" edge="1">
          <mxGeometry relative="1" as="geometry" />
        </mxCell>
        <mxCell id="qCD3Xn8CvtnOKgH4Qj7L-21" value="" style="rounded=0;whiteSpace=wrap;html=1;" parent="WIyWlLk6GJQsqaUBKTNV-1" vertex="1">
          <mxGeometry x="520" y="-110" width="160" height="30" as="geometry" />
        </mxCell>
      </root>
    </mxGraphModel>
  </diagram>
</mxfile>
